<?xml version="1.0" standalone="no"?><!-- Generator: Gravit.io --><svg xmlns="http://www.w3.org/2000/svg" xmlns:xlink="http://www.w3.org/1999/xlink" style="isolation:isolate" viewBox="0 0 1080 1080" width="1080" height="1080"><defs><clipPath id="_clipPath_A9igQZ3S5p3VTLFKJAYYWjvEFyaNPYw6"><rect width="1080" height="1080"/></clipPath></defs><g clip-path="url(#_clipPath_A9igQZ3S5p3VTLFKJAYYWjvEFyaNPYw6)"><path d="M 76.809 2.315 L 448.249 2.315 C 490.641 2.315 525.058 36.732 525.058 79.124 L 525.058 450.461 C 525.058 492.853 490.641 527.27 448.249 527.27 L 76.809 527.27 C 34.417 527.27 0 492.853 0 450.461 L 0 79.124 C 0 36.732 34.417 2.315 76.809 2.315 Z" style="stroke:none;fill:#FF2727;stroke-miterlimit:10;"/><path d="M 76.809 557.117 L 448.249 557.117 C 490.641 557.117 525.058 591.534 525.058 633.926 L 525.058 1005.263 C 525.058 1047.655 490.641 1082.072 448.249 1082.072 L 76.809 1082.072 C 34.417 1082.072 0 1047.655 0 1005.263 L 0 633.926 C 0 591.534 34.417 557.117 76.809 557.117 Z" style="stroke:none;fill:#207EFF;stroke-miterlimit:10;"/><path d="M 631.751 554.802 L 1003.191 554.802 C 1045.583 554.802 1080 589.219 1080 631.611 L 1080 1002.948 C 1080 1045.34 1045.583 1079.757 1003.191 1079.757 L 631.751 1079.757 C 589.359 1079.757 554.942 1045.34 554.942 1002.948 L 554.942 631.611 C 554.942 589.219 589.359 554.802 631.751 554.802 Z" style="stroke:none;fill:#00D962;stroke-miterlimit:10;"/><path d="M 590.463 2.315 L 762.213 2.315 C 781.817 2.315 797.734 18.231 797.734 37.835 L 797.734 209.586 C 797.734 229.19 781.817 245.107 762.213 245.107 L 590.463 245.107 C 570.858 245.107 554.942 229.19 554.942 209.586 L 554.942 37.835 C 554.942 18.231 570.858 2.315 590.463 2.315 Z" style="stroke:none;fill:#207EFF;stroke-miterlimit:10;"/><path d="M 590.463 275.628 L 762.213 275.628 C 781.817 275.628 797.734 291.544 797.734 311.148 L 797.734 482.899 C 797.734 502.503 781.817 518.419 762.213 518.419 L 590.463 518.419 C 570.858 518.419 554.942 502.503 554.942 482.899 L 554.942 311.148 C 554.942 291.544 570.858 275.628 590.463 275.628 Z" style="stroke:none;fill:#FFD930;stroke-miterlimit:10;"/><path d="M 872.729 275.628 L 1044.479 275.628 C 1064.084 275.628 1080 291.544 1080 311.148 L 1080 482.899 C 1080 502.503 1064.084 518.419 1044.479 518.419 L 872.729 518.419 C 853.125 518.419 837.208 502.503 837.208 482.899 L 837.208 311.148 C 837.208 291.544 853.125 275.628 872.729 275.628 Z" style="stroke:none;fill:#FF2727;stroke-miterlimit:10;"/><path d="M 853.529 2.315 L 932.441 2.315 C 941.448 2.315 948.761 9.628 948.761 18.635 L 948.761 97.548 C 948.761 106.555 941.448 113.868 932.441 113.868 L 853.529 113.868 C 844.521 113.868 837.208 106.555 837.208 97.548 L 837.208 18.635 C 837.208 9.628 844.521 2.315 853.529 2.315 Z" style="stroke:none;fill:#FF2727;stroke-miterlimit:10;"/><path d="M 853.529 133.554 L 932.441 133.554 C 941.448 133.554 948.761 140.866 948.761 149.874 L 948.761 228.786 C 948.761 237.794 941.448 245.107 932.441 245.107 L 853.529 245.107 C 844.521 245.107 837.208 237.794 837.208 228.786 L 837.208 149.874 C 837.208 140.866 844.521 133.554 853.529 133.554 Z" style="stroke:none;fill:#00D962;stroke-miterlimit:10;"/><path d="M 984.767 133.554 L 1063.68 133.554 C 1072.687 133.554 1080 140.866 1080 149.874 L 1080 228.786 C 1080 237.794 1072.687 245.107 1063.68 245.107 L 984.767 245.107 C 975.76 245.107 968.447 237.794 968.447 228.786 L 968.447 149.874 C 968.447 140.866 975.76 133.554 984.767 133.554 Z" style="stroke:none;fill:#FFD930;stroke-miterlimit:10;"/><path d="M 976.254 2.868 L 1014.064 2.868 C 1018.373 2.868 1021.871 6.366 1021.871 10.675 L 1021.871 48.365 C 1021.871 52.674 1018.373 56.172 1014.064 56.172 L 976.254 56.172 C 971.945 56.172 968.447 52.674 968.447 48.365 L 968.447 10.675 C 968.447 6.366 971.945 2.868 976.254 2.868 Z" style="stroke:none;fill:#FFD930;stroke-miterlimit:10;"/><path d="M 976.254 60.296 L 1014.064 60.296 C 1018.373 60.296 1021.871 63.795 1021.871 68.103 L 1021.871 105.793 C 1021.871 110.102 1018.373 113.6 1014.064 113.6 L 976.254 113.6 C 971.945 113.6 968.447 110.102 968.447 105.793 L 968.447 68.103 C 968.447 63.795 971.945 60.296 976.254 60.296 Z" style="stroke:none;fill:#207EFF;stroke-miterlimit:10;"/><path d="M 1033.83 2.868 L 1071.64 2.868 C 1075.949 2.868 1079.447 6.366 1079.447 10.675 L 1079.447 48.365 C 1079.447 52.674 1075.949 56.172 1071.64 56.172 L 1033.83 56.172 C 1029.521 56.172 1026.023 52.674 1026.023 48.365 L 1026.023 10.675 C 1026.023 6.366 1029.521 2.868 1033.83 2.868 Z" style="stroke:none;fill:#00D962;stroke-miterlimit:10;"/><path d="M 1033.83 60.296 L 1071.64 60.296 C 1075.949 60.296 1079.447 63.795 1079.447 68.103 L 1079.447 105.793 C 1079.447 110.102 1075.949 113.6 1071.64 113.6 L 1033.83 113.6 C 1029.521 113.6 1026.023 110.102 1026.023 105.793 L 1026.023 68.103 C 1026.023 63.795 1029.521 60.296 1033.83 60.296 Z" style="stroke:none;fill:#FF2727;stroke-miterlimit:10;"/></g></svg>