<?xml version="1.0" encoding="UTF-8" standalone="no"?><!-- Generator: Gravit.io --><svg xmlns="http://www.w3.org/2000/svg" xmlns:xlink="http://www.w3.org/1999/xlink" style="isolation:isolate" viewBox="0 0 1000 350" width="1000pt" height="350pt"><defs><clipPath id="_clipPath_jiO57ZkPOFpHYKGEzbWoVwu7Bzu67Nmd"><rect width="1000" height="350"/></clipPath></defs><g clip-path="url(#_clipPath_jiO57ZkPOFpHYKGEzbWoVwu7Bzu67Nmd)"><g><path d="M 57.998 55.52 L 140.202 55.52 C 149.583 55.52 157.2 63.137 157.2 72.519 L 157.2 154.701 C 157.2 164.083 149.583 171.7 140.202 171.7 L 57.998 171.7 C 48.617 171.7 41 164.083 41 154.701 L 41 72.519 C 41 63.137 48.617 55.52 57.998 55.52 Z" style="stroke:none;fill:#FF2727;stroke-miterlimit:10;"/><path d="M 57.998 178.3 L 140.202 178.3 C 149.583 178.3 157.2 185.917 157.2 195.299 L 157.2 277.481 C 157.2 286.863 149.583 294.48 140.202 294.48 L 57.998 294.48 C 48.617 294.48 41 286.863 41 277.481 L 41 195.299 C 41 185.917 48.617 178.3 57.998 178.3 Z" style="stroke:none;fill:#207EFF;stroke-miterlimit:10;"/><path d="M 180.818 177.79 L 263.022 177.79 C 272.403 177.79 280.02 185.407 280.02 194.789 L 280.02 276.971 C 280.02 286.353 272.403 293.97 263.022 293.97 L 180.818 293.97 C 171.437 293.97 163.82 286.353 163.82 276.971 L 163.82 194.789 C 163.82 185.407 171.437 177.79 180.818 177.79 Z" style="stroke:none;fill:#00D962;stroke-miterlimit:10;"/><path d="M 171.681 55.52 L 209.689 55.52 C 214.028 55.52 217.55 59.042 217.55 63.381 L 217.55 101.389 C 217.55 105.728 214.028 109.25 209.689 109.25 L 171.681 109.25 C 167.342 109.25 163.82 105.728 163.82 101.389 L 163.82 63.381 C 163.82 59.042 167.342 55.52 171.681 55.52 Z" style="stroke:none;fill:#207EFF;stroke-miterlimit:10;"/><path d="M 171.681 116.01 L 209.689 116.01 C 214.028 116.01 217.55 119.532 217.55 123.871 L 217.55 161.879 C 217.55 166.218 214.028 169.74 209.689 169.74 L 171.681 169.74 C 167.342 169.74 163.82 166.218 163.82 161.879 L 163.82 123.871 C 163.82 119.532 167.342 116.01 171.681 116.01 Z" style="stroke:none;fill:#FFD930;stroke-miterlimit:10;"/><path d="M 234.151 116.01 L 272.159 116.01 C 276.498 116.01 280.02 119.532 280.02 123.871 L 280.02 161.879 C 280.02 166.218 276.498 169.74 272.159 169.74 L 234.151 169.74 C 229.812 169.74 226.29 166.218 226.29 161.879 L 226.29 123.871 C 226.29 119.532 229.812 116.01 234.151 116.01 Z" style="stroke:none;fill:#FF2727;stroke-miterlimit:10;"/><path d="M 229.901 55.52 L 247.359 55.52 C 249.352 55.52 250.97 57.139 250.97 59.132 L 250.97 76.598 C 250.97 78.591 249.352 80.21 247.359 80.21 L 229.901 80.21 C 227.908 80.21 226.29 78.591 226.29 76.598 L 226.29 59.132 C 226.29 57.139 227.908 55.52 229.901 55.52 Z" style="stroke:none;fill:#FF2727;stroke-miterlimit:10;"/><path d="M 229.901 84.56 L 247.359 84.56 C 249.352 84.56 250.97 86.179 250.97 88.172 L 250.97 105.638 C 250.97 107.631 249.352 109.25 247.359 109.25 L 229.901 109.25 C 227.908 109.25 226.29 107.631 226.29 105.638 L 226.29 88.172 C 226.29 86.179 227.908 84.56 229.901 84.56 Z" style="stroke:none;fill:#00D962;stroke-miterlimit:10;"/><path d="M 258.942 84.56 L 276.408 84.56 C 278.401 84.56 280.02 86.179 280.02 88.172 L 280.02 105.638 C 280.02 107.631 278.401 109.25 276.408 109.25 L 258.942 109.25 C 256.949 109.25 255.33 107.631 255.33 105.638 L 255.33 88.172 C 255.33 86.179 256.949 84.56 258.942 84.56 Z" style="stroke:none;fill:#FFD930;stroke-miterlimit:10;"/><path d="M 257.057 55.64 L 265.423 55.64 C 266.376 55.64 267.15 56.414 267.15 57.368 L 267.15 65.712 C 267.15 66.666 266.376 67.44 265.423 67.44 L 257.057 67.44 C 256.104 67.44 255.33 66.666 255.33 65.712 L 255.33 57.368 C 255.33 56.414 256.104 55.64 257.057 55.64 Z" style="stroke:none;fill:#FFD930;stroke-miterlimit:10;"/><path d="M 257.057 68.35 L 265.423 68.35 C 266.376 68.35 267.15 69.124 267.15 70.078 L 267.15 78.422 C 267.15 79.376 266.376 80.15 265.423 80.15 L 257.057 80.15 C 256.104 80.15 255.33 79.376 255.33 78.422 L 255.33 70.078 C 255.33 69.124 256.104 68.35 257.057 68.35 Z" style="stroke:none;fill:#207EFF;stroke-miterlimit:10;"/><path d="M 269.799 55.64 L 278.171 55.64 C 279.125 55.64 279.9 56.414 279.9 57.368 L 279.9 65.712 C 279.9 66.666 279.125 67.44 278.171 67.44 L 269.799 67.44 C 268.845 67.44 268.07 66.666 268.07 65.712 L 268.07 57.368 C 268.07 56.414 268.845 55.64 269.799 55.64 Z" style="stroke:none;fill:#00D962;stroke-miterlimit:10;"/><path d="M 269.799 68.35 L 278.171 68.35 C 279.125 68.35 279.9 69.124 279.9 70.078 L 279.9 78.422 C 279.9 79.376 279.125 80.15 278.171 80.15 L 269.799 80.15 C 268.845 80.15 268.07 79.376 268.07 78.422 L 268.07 70.078 C 268.07 69.124 268.845 68.35 269.799 68.35 Z" style="stroke:none;fill:#FF2727;stroke-miterlimit:10;"/></g><text transform="matrix(1,0,0,1,303,216.016)" style="font-family:'Roboto';font-weight:300;font-size:120px;font-style:normal;fill:#000000;stroke:none;">BulkBazar.in</text></g></svg>